<svg xmlns="http://www.w3.org/2000/svg" viewBox="0 0 240.5 44.95"><g id="Layer_2" data-name="Layer 2"><g id="Layer_1-2" data-name="Layer 1"><g id="SvgjsG1583"><path d="M19.62,31.94,43.8,17.88v-3L19.62,28.91,16,26.84h0L2.71,19.16V15.63l16.87,9.74L43.75,11.31,24.13,0,0,14H0v6.52H0v6.53H0V33.6H0l14.66,8.45h0l5,2.9,24.13-14v-3l-24.18,14L16,39.85h0L2.71,32.17V28.68l11.9,6.85h0l5,2.89,24.13-14v-3L19.62,35.43,16,33.37h0L2.71,25.69V22.2l11.9,6.85h0ZM22.57,4.73l13,7.54L33,13.74,20,6.2ZM17.92,7.45l13,7.53-2.57,1.47-13-7.53Z"/></g><g id="SvgjsG1584"><path d="M73,24.06c3.66.75,5.41,2.75,5.41,6,0,4.18-2.72,6.42-9.28,6.42H59.18V36.2h1.6a1.59,1.59,0,0,0,1.59-1.6V14.89A1.91,1.91,0,0,0,60.45,13H59.18v-.22h9.91c5,0,7,2.88,7,5.64,0,2.36-.87,4.26-3.21,5.05a.31.31,0,0,0-.22.32.33.33,0,0,0,.26.3ZM64,13V23.72h5.12c4,0,8.16-2.65,5.6-5.21-2-2-1-5.54-5.6-5.54ZM69.09,36.2c5.92,0,9.71-3.57,7.2-6.08S75,24,69.09,24H64V36.2Zm33.56-23.61a12,12,0,1,1-5.76,22.52,12,12,0,1,1,0-21A11.92,11.92,0,0,1,102.65,12.59Zm-7.53,23a11.5,11.5,0,0,0,1.44-.64,12,12,0,0,1-1.67-19.49c-2.13-2-4.41-3-7.76-1.82C81.07,15.82,77.4,23.36,82,27.93s7.1,9.84,13.16,7.63Zm5.18-14.31c-1.94-1.94-3.51-4-5.15-5.57-3.75,3.23-5.26,8.66-1.67,12.25,1.91,1.91,3.5,4,5.17,5.6,3.82-3.17,5.46-8.47,1.65-12.28Zm6.34,14.31c6.06-2.21,10-9.47,5.18-14.31-4.56-4.56-7.11-9.84-13.17-7.64a12.08,12.08,0,0,0-1.42.64,12,12,0,0,1,1.65,19.49C101,35.69,103.32,36.77,106.64,35.56ZM119.78,13V36.2H123v.23h-8V36.2h1.28a1.92,1.92,0,0,0,1.92-1.92V14.89A1.92,1.92,0,0,0,116.26,13H115v-.22h8V13Zm2.09,10.29C127.19,29.5,132.5,36.2,136,36.2v.23c-5.37,0-10-6.23-15.46-12.24a.64.64,0,0,1-.17-.47.62.62,0,0,1,.21-.44l10.21-9.19a.64.64,0,0,0-.43-1.12h-1.31v-.22h6.39V13h-1.4a4.35,4.35,0,0,0-2.93,1.13l-9.19,8.27a.63.63,0,0,0-.06.89ZM162,13h-3.2V36.2H162v.23h-8V36.2h1.28a1.92,1.92,0,0,0,1.92-1.92V13.2l-8.65,15,1.61,2.8c2,3.94.16,5.76-1.92,5.76s-3.68-1.92-1.57-5.76l1-1.75-8.05-13.93V36.2h3.2v.23h-6.62V36.2h1.28a1.92,1.92,0,0,0,1.92-1.92V14.89A1.92,1.92,0,0,0,137.5,13h-1.28v-.22h3.42L148.43,28l8.78-15.21H162V13ZM148.7,31l-.88-1.52L146.94,31c-2.05,3.52-.45,4.89,1.31,4.89s2.19-1.8.45-4.89Zm32.23,5.21h2.56v.23h-6.8V36.2h.75a1.28,1.28,0,0,0,1.05-.54,1.26,1.26,0,0,0,.16-1.16l-2.36-6.71H167l-2.73,8.41h2.56v.23h-5.36V36.2h1.17a1.9,1.9,0,0,0,1.82-1.32l2.31-7.09.07-.23,4.51-13.87.71-1.47h.45Zm-13.87-8.64h9.15L171.46,14ZM187.67,13V36.2h3.2v.23h-8V36.2h1.27a1.92,1.92,0,0,0,1.93-1.92V14.89A1.92,1.92,0,0,0,184.15,13h-1.27v-.22h8V13Zm2.1,10.29c5.32,6.24,10.63,12.94,14.14,12.94v.23c-5.37,0-10-6.23-15.47-12.24a.67.67,0,0,1-.16-.47.58.58,0,0,1,.21-.44l10.2-9.19a.64.64,0,0,0-.42-1.12H197v-.22h6.4V13H202A4.33,4.33,0,0,0,199,14.1l-9.19,8.27a.63.63,0,0,0-.06.89ZM214.52,13h-5.6V23.63h4.16a3.79,3.79,0,0,0,4.06-3.84h.1v7.9h-.1a3.79,3.79,0,0,0-4.06-3.84h-4.16V36.2h5.6c3.52,0,5.5-2,5.5-6.08h.1v6.31h-16V36.2h1.28a1.92,1.92,0,0,0,1.92-1.92V14.89A1.92,1.92,0,0,0,205.4,13h-1.28v-.22h16v6.3H220c0-4.06-2-6.08-5.5-6.08ZM234.34,30c1.42,3.8,3.6,6.17,6.16,6.17v.23c-3.84,0-6-1.77-7.44-5.12-1.32-3.15-3.76-6.08-7.44-6.08v11h3.2v.23h-8V36.2h1.6a1.59,1.59,0,0,0,1.6-1.6V14.89A1.92,1.92,0,0,0,222.1,13h-1.28v-.22h9.92c5,0,7,2.88,7,5.64,0,4-2.39,6.84-7.35,6.84H228c3.21.48,5.3,2.05,6.32,4.8ZM225.62,13V25h5.12c4.32,0,7.84-3.61,5.6-6.49-1.77-2.27-1-5.54-5.6-5.54Z"/></g></g></g></svg>